<svg width="133" height="44" viewBox="0 0 133 44" fill="none" xmlns="http://www.w3.org/2000/svg">
<path d="M4.18 21.22C7.14 19.9 9.94 19.24 12.58 19.24C16.02 19.24 17.78 21.26 17.86 25.3H11.5C8.26 25.3 5.64 26.1 3.64 27.7C1.68 29.3 0.7 31.56 0.7 34.48C0.7 37.28 1.56 39.52 3.28 41.2C5.04 42.88 7.6 43.72 10.96 43.72C12.4 43.72 13.84 43.38 15.28 42.7C16.72 42.02 18 41.14 19.12 40.06L20.14 43H24.64V23.56C24.64 21.6 24.1 19.84 23.02 18.28C21.94 16.68 20.46 15.42 18.58 14.5C16.74 13.58 14.7 13.12 12.46 13.12C11.1 13.12 9.32 13.38 7.12 13.9C4.96 14.42 3.36 15.02 2.32 15.7L4.18 21.22ZM6.58 34.48C6.58 33.16 7 32.06 7.84 31.18C8.72 30.26 9.9 29.8 11.38 29.8H17.92V35.02C16.92 36.06 15.8 36.88 14.56 37.48C13.32 38.08 12.08 38.38 10.84 38.38C9.52 38.38 8.48 38 7.72 37.24C6.96 36.44 6.58 35.52 6.58 34.48ZM38.0828 24.46C39.6828 23.02 41.4428 21.8 43.3628 20.8C45.2828 19.8 46.9628 19.3 48.4028 19.3L47.0228 13.9C45.6228 13.9 43.9828 14.4 42.1028 15.4C40.2628 16.4 38.6228 17.5 37.1828 18.7L34.9628 13.9H31.3628V43H38.0828V24.46ZM65.4766 13.12C68.4366 13.12 71.0166 13.76 73.2166 15.04C75.4166 16.28 77.0966 18.06 78.2566 20.38C79.4566 22.7 80.0566 25.42 80.0566 28.54C80.0566 31.54 79.4566 34.2 78.2566 36.52C77.0566 38.8 75.3366 40.58 73.0966 41.86C70.8966 43.14 68.3166 43.78 65.3566 43.78C64.2766 43.78 63.0566 43.54 61.6966 43.06C60.3766 42.58 59.1366 41.94 57.9766 41.14L56.5966 43H53.0566V1.3L59.7766 0.639998V14.68C61.7366 13.64 63.6366 13.12 65.4766 13.12ZM65.3566 37.96C67.7566 37.96 69.6366 37.08 70.9966 35.32C72.3966 33.56 73.0966 31.3 73.0966 28.54C73.0966 25.66 72.4166 23.34 71.0566 21.58C69.6966 19.78 67.7966 18.88 65.3566 18.88C64.3166 18.88 63.3366 19.04 62.4166 19.36C61.5366 19.68 60.6566 20.16 59.7766 20.8V36.16C61.4166 37.36 63.2766 37.96 65.3566 37.96ZM110.592 28.24C110.592 23.84 109.492 20.22 107.292 17.38C105.092 14.54 101.852 13.12 97.5719 13.12C94.6519 13.12 92.1119 13.76 89.9519 15.04C87.8319 16.32 86.1919 18.12 85.0319 20.44C83.9119 22.72 83.3519 25.38 83.3519 28.42C83.3519 33.14 84.7319 36.88 87.4919 39.64C90.2919 42.36 94.3319 43.72 99.6119 43.72C103.532 43.72 107.112 42.6 110.352 40.36L108.312 35.44C106.592 36.32 105.112 36.98 103.872 37.42C102.672 37.82 101.292 38.02 99.7319 38.02C94.1319 38.02 91.0319 35.42 90.4319 30.22H110.592V28.24ZM90.5519 25.72C90.8319 23.56 91.5519 21.88 92.7119 20.68C93.9119 19.48 95.4719 18.88 97.3919 18.88C99.2719 18.88 100.772 19.46 101.892 20.62C103.012 21.78 103.752 23.48 104.112 25.72H90.5519ZM122.399 24.46C123.999 23.02 125.759 21.8 127.679 20.8C129.599 19.8 131.279 19.3 132.719 19.3L131.339 13.9C129.939 13.9 128.299 14.4 126.419 15.4C124.579 16.4 122.939 17.5 121.499 18.7L119.279 13.9H115.679V43H122.399V24.46Z" fill="#99BAED"/>
</svg>
