<svg width="121" height="129" xmlns="http://www.w3.org/2000/svg"><path d="M65.555.018c-8.83.444-15.8 8-15.345 16.87l2.34 45.608-15.227 6.453c-4.704-8.94-15.514-12.94-24.953-8.94C2.404 64.235-2.254 75.775 1.966 85.791c4.22 10.014 15.72 14.711 25.69 10.487 6.84-2.9 11.177-9.247 11.862-16.18l18.65-7.903 1.04 20.31a19.672 19.672 0 00-9.325 17.778c.558 10.858 9.772 19.215 20.58 18.672 10.81-.545 19.12-9.785 18.564-20.64-.527-10.28-8.82-18.316-18.875-18.68L69.3 73.052l41.871-17.747c8.145-3.45 11.877-13.046 8.429-21.228L68.415 55.772 65.555.018zM28.683 83.556a10.127 10.127 0 01-14.002 3.213c-4.756-2.996-6.197-9.295-3.22-14.066a10.126 10.126 0 0114.002-3.213c4.756 2.996 6.198 9.293 3.22 14.066zm49.37 31.112a10.126 10.126 0 01-14.002 3.213c-4.755-2.996-6.197-9.294-3.22-14.066a10.127 10.127 0 0114.003-3.214c4.755 2.997 6.198 9.294 3.22 14.067z" fill="#99BAED"/></svg>