<svg width="133" height="44" xmlns="http://www.w3.org/2000/svg"><path d="M4.18 21.22c2.96-1.32 5.76-1.98 8.4-1.98 3.44 0 5.2 2.02 5.28 6.06H11.5c-3.24 0-5.86.8-7.86 2.4C1.68 29.3.7 31.56.7 34.48c0 2.8.86 5.04 2.58 6.72 1.76 1.68 4.32 2.52 7.68 2.52 1.44 0 2.88-.34 4.32-1.02 1.44-.68 2.72-1.56 3.84-2.64L20.14 43h4.5V23.56c0-1.96-.54-3.72-1.62-5.28-1.08-1.6-2.56-2.86-4.44-3.78-1.84-.92-3.88-1.38-6.12-1.38-1.36 0-3.14.26-5.34.78-2.16.52-3.76 1.12-4.8 1.8l1.86 5.52zm2.4 13.26c0-1.32.42-2.42 1.26-3.3.88-.92 2.06-1.38 3.54-1.38h6.54v5.22c-1 1.04-2.12 1.86-3.36 2.46-1.24.6-2.48.9-3.72.9-1.32 0-2.36-.38-3.12-1.14-.76-.8-1.14-1.72-1.14-2.76zm31.503-10.02c1.6-1.44 3.36-2.66 5.28-3.66 1.92-1 3.6-1.5 5.04-1.5l-1.38-5.4c-1.4 0-3.04.5-4.92 1.5-1.84 1-3.48 2.1-4.92 3.3l-2.22-4.8h-3.6V43h6.72V24.46zm27.394-11.34c2.96 0 5.54.64 7.74 1.92 2.2 1.24 3.88 3.02 5.04 5.34 1.2 2.32 1.8 5.04 1.8 8.16 0 3-.6 5.66-1.8 7.98a13.01 13.01 0 01-5.16 5.34c-2.2 1.28-4.78 1.92-7.74 1.92-1.08 0-2.3-.24-3.66-.72-1.32-.48-2.56-1.12-3.72-1.92L56.597 43h-3.54V1.3l6.72-.66v14.04c1.96-1.04 3.86-1.56 5.7-1.56zm-.12 24.84c2.4 0 4.28-.88 5.64-2.64 1.4-1.76 2.1-4.02 2.1-6.78 0-2.88-.68-5.2-2.04-6.96-1.36-1.8-3.26-2.7-5.7-2.7-1.04 0-2.02.16-2.94.48-.88.32-1.76.8-2.64 1.44v15.36c1.64 1.2 3.5 1.8 5.58 1.8zm45.235-9.72c0-4.4-1.1-8.02-3.3-10.86-2.2-2.84-5.44-4.26-9.72-4.26-2.92 0-5.46.64-7.62 1.92-2.12 1.28-3.76 3.08-4.92 5.4-1.12 2.28-1.68 4.94-1.68 7.98 0 4.72 1.38 8.46 4.14 11.22 2.8 2.72 6.84 4.08 12.12 4.08 3.92 0 7.5-1.12 10.74-3.36l-2.04-4.92c-1.72.88-3.2 1.54-4.44 1.98-1.2.4-2.58.6-4.14.6-5.6 0-8.7-2.6-9.3-7.8h20.16v-1.98zm-20.04-2.52c.28-2.16 1-3.84 2.16-5.04 1.2-1.2 2.76-1.8 4.68-1.8 1.88 0 3.38.58 4.5 1.74 1.12 1.16 1.86 2.86 2.22 5.1h-13.56zm31.847-1.26c1.6-1.44 3.36-2.66 5.28-3.66 1.92-1 3.6-1.5 5.04-1.5l-1.38-5.4c-1.4 0-3.04.5-4.92 1.5-1.84 1-3.48 2.1-4.92 3.3l-2.22-4.8h-3.6V43h6.72V24.46z" fill="#99BAED"/></svg>